# xmcd CD database file
#
# Track frame offsets:
#	150
#	7575
#	26025
#	31275
#	62250
#	68095
#	102900
#	108825
#	134775
#	141075
#	157725
#	188925
#	202500
#	209775
#
# Disc length: 3182 seconds
#
# Revision: 0
# Processed by: cddbd v1.4PL0 Copyright (c) Steve Scherf et al.
# Submitted via: CDex 1.51
#
DISCID=b40c6c0e
DTITLE=Wodrascka - Transkei
DYEAR=1994
DGENRE=Jazz
TTITLE0=A l'est
TTITLE1=Comédie
TTITLE2=Liminaire
TTITLE3=Brac
TTITLE4=Padakar
TTITLE5=Transkei
TTITLE6=Tellurique
TTITLE7=Cinquante doigts d'eau
TTITLE8=Matière première
TTITLE9=5, 6 et Line s'interroge
TTITLE10=Ascenseur pour l'escabeau
TTITLE11=Etrange sérénade
TTITLE12=Introduction to 84 steps too much
TTITLE13=Laissez-la parler
EXTD=YEAR: 1994
EXTT0=
EXTT1=
EXTT2=
EXTT3=
EXTT4=
EXTT5=
EXTT6=
EXTT7=
EXTT8=
EXTT9=
EXTT10=
EXTT11=
EXTT12=
EXTT13=
PLAYORDER=
